<svg xmlns="http://www.w3.org/2000/svg" width="117.362" height="129.1" viewBox="0 0 117.362 129.1">
  <g id="noun-sync-1069077" transform="translate(-80.602 -51.031)">
    <path id="Path_1" data-name="Path 1" d="M436.34,358.534c-.045-.058-.17.012-.472.327A2.639,2.639,0,0,0,436.34,358.534Z" transform="translate(-271.201 -219.564)" fill-rule="evenodd"/>
    <path id="Path_2" data-name="Path 2" d="M238.46,431.13a3.037,3.037,0,0,0,1.646,1.7A9.222,9.222,0,0,0,238.46,431.13Z" transform="translate(-130.239 -271.416)" fill-rule="evenodd"/>
    <path id="Path_3" data-name="Path 3" d="M244.22,437.09c.04.05.08.1.121.153.01-.025.025-.028.035-.052C244.315,437.163,244.279,437.115,244.22,437.09Z" transform="translate(-134.352 -275.672)" fill-rule="evenodd"/>
    <path id="Path_4" data-name="Path 4" d="M231.935,307.6c-3.215.5-2.855,6.289-5.532,8.079.153.206-.858,2.227-.472,3.33-2.49-.163-2.339.785-4.2,0-1.719,1.083-1.578,4.023-3.6,4.8.482-1.751-4.106,1.576-5.4,3.6-.943-.258-.513-1.889-2.4-1.2-6.267,4.193-18.157.668-25.221-1.2,3.224-.488-.978-1.614-1.2-2.4,3.923-7.871,21.781-13.771,13.811-24.018-5.712,0-14.1.283-16.813,0-5.036-.525-12.264,1.3-17.413,1.2s-20.523-3.488-21.617,3V307c1.374,1.689,1.011,4.526,0,6.608v13.208c1.374,1.689,1.011,4.526,0,6.608v1.8c2.232,5.977-1.881,18.294,3,21.617h1.8c6.275-4.331,9.953-11.263,16.212-15.609,11.038,10.591,35.973,19.355,54.041,13.208,21.892-7.448,41.586-27.128,41.432-52.84-9.3-2.474-16.04-.052-22.217-2.4-2.879,1.328-4.956,3.451-4.205,8.405Zm20.416-1.8c-3.767,30.452-28.676,48.043-61.247,43.834a102.779,102.779,0,0,0-14.41-6v-1.8c-2.411.753-3.886-1.568-5.439-3.547-.561,1.273-1.771-1.4-3.568-.656.16-3.836-1.093-4.523-4.2-6,.228,1.233-2.51,1.477-3.6,3-1.356-.335.728-.936-.6-1.8-.793,1.628-3.923,4.051-3,5.4-1.181.611-4.368-.333-4.2,3-2.417-6.981-.15-21.091-1.2-33.626,11.989-.185,25.037.095,34.226-.6a25.164,25.164,0,0,1-4.8,7.806c-2.222,2.372-9.913,4.568-7.205,10.208,1.709,3.561,6.305,4.766,9.608,6.606,1.1.615,1.846,2.48,3,3,22.818,10.333,49.967-9.17,52.24-28.219,4.745-.259,9.094-.915,14.41-.6Z" transform="translate(-61.266 -176.709)" fill="#386150" fill-rule="evenodd"/>
    <path id="Path_5" data-name="Path 5" d="M260.134,54.033c-8.409,2.925-10.06,9.142-16.813,13.21-5.189-3.741-9.425-7.086-15.613-9.608h1.8c-3-2.04-5.782-3.565-8.992-3.212-.06.117-.163.117-.293.05a9.1,9.1,0,0,0-.924.16c0-.976.548-.355.924-.16.1-.012.2-.04.293-.05a1.894,1.894,0,0,0-.015-.991c-3.66,1.561-4.869-3.2-7.205.6.028-3.267-5.081-1.063-6.606-3h-4.8c-6.47,2.395-13.218.347-18.014,6-2.3.107-.218-.49-.6-1.8-21.872,9.239-37.514,28.534-37.229,54.041,7.836,2.385,14.612.951,25.219,1.2,3.748-7.405,6.685-17.253,13.811-24.018,7.12-3.948,17.255-7.2,27.622-6,3.605,2.6,9.021,3.385,12.61,6-6.36,6.653-13.916,12.1-18.615,20.415,5.722,4.5,19.44,2.05,28.822,2.4,4.629.175,16.9.533,25.818-.6,1.081-12.507.6-28.342.6-42.633,0-4.029,1.318-9.36-1.8-12.007Zm-3,49.838c-10.438.423-17.969-1.881-27.622-.6-1.884.285-1.586-1.616-3-1.8.446,1.408-2.181,1.3-4.8,1.2-.763-3.305,3.06-2.1,2.4-6.606,2.617,2.375,10.365-6.763,10.208-9.007-.408-5.912-7.714-8.779-13.208-9.608.095-.7,1.1-.508,1.8-.6-16.615-11.734-48.411-.7-53.441,18.014.415,1.616-1.241,1.161-1.8,1.8-.025,1.977-1.013,2.988-.6,5.4-5.5-.856-9.735,1.677-12.61,0,.961-5.244,3.079-9.33,4.2-14.41a149.074,149.074,0,0,1,16.813-19.815c3.787-.415,5.589-2.817,7.806-4.8,15.685-4.929,33.154-5.3,46.836,3,4.066,2.467,8.8,8.952,12.61,9.007,7.06.1,7.451-10.226,14.41-12.009-.738,14.874.219,25.035,0,40.834Z" transform="translate(-64.245 0)" fill="rgba(178,178,65,0.77)" fill-rule="evenodd"/>
  </g>
</svg>
